<?xml version="1.0" encoding="UTF-8"?>
<svg version="1.1" xmlns="http://www.w3.org/2000/svg" width="225" height="225">
<path d="M0 0 C74.25 0 148.5 0 225 0 C225 74.25 225 148.5 225 225 C150.75 225 76.5 225 0 225 C0 150.75 0 76.5 0 0 Z " fill="#FEFEFE" transform="translate(0,0)"/>
<path d="M0 0 C1.98194695 0.43248681 1.98194695 0.43248681 3.734375 -0.6796875 C9.1431219 -3.32652109 17.67529647 -2.55816678 23.453125 -1.140625 C29.15906897 1.39784614 34.26136797 6.45366991 36.79296875 12.17578125 C37.00566406 12.77519531 37.21835938 13.37460937 37.4375 13.9921875 C39.12333836 17.64483728 40.5370063 18.3509586 44.0390625 20.109375 C51.73756147 24.70312953 56.08546336 33.7978644 58.48168945 42.13574219 C61.11210684 54.29173642 58.87482541 67.98192409 56.9375 80.0546875 C54.84673911 93.22070849 54.43187512 105.93778296 54.9375 119.2421875 C54.97883057 120.4178125 54.97883057 120.4178125 55.02099609 121.6171875 C55.20965831 126.50277553 55.53503173 131.36986609 55.9375 136.2421875 C56.00727051 137.08845703 56.07704102 137.93472656 56.14892578 138.80664062 C56.97580963 148.6309336 57.92379334 158.44207625 59 168.2421875 C59.07919678 168.965271 59.15839355 169.68835449 59.23999023 170.43334961 C59.68769398 174.39503452 60.27407574 178.31181688 60.9375 182.2421875 C61.4438325 186.24221421 61.61179866 189.27716414 59.20703125 192.71875 C43.59729133 207.00854868 10.45522565 204.45657245 -8.881073 203.66317749 C-24.85360033 202.87042445 -44.54152016 201.31336967 -57.0625 190.2421875 C-60.74557122 182.87604506 -57.73857177 170.88835616 -56.6875 162.9921875 C-52.44899354 130.69784443 -50.38122292 97.8384703 -56.1640625 65.64453125 C-58.4554333 52.71336695 -58.5870428 37.62500219 -51.4765625 26.1484375 C-47.58948031 20.908393 -43.35881054 18.62737582 -37.0625 17.2421875 C-36.98 16.5409375 -36.8975 15.8396875 -36.8125 15.1171875 C-35.18203071 8.86705521 -31.17751371 4.9530798 -26.0625 1.2421875 C-17.99178394 -3.43882782 -8.71718454 -2.67459071 0 0 Z " fill="#FDFDFD" transform="translate(111.0625,11.7578125)"/>
<path d="M0 0 C1.98194695 0.43248681 1.98194695 0.43248681 3.734375 -0.6796875 C9.1431219 -3.32652109 17.67529647 -2.55816678 23.453125 -1.140625 C29.15906897 1.39784614 34.26136797 6.45366991 36.79296875 12.17578125 C37.00566406 12.77519531 37.21835938 13.37460937 37.4375 13.9921875 C39.12333836 17.64483728 40.5370063 18.3509586 44.0390625 20.109375 C51.73756147 24.70312953 56.08546336 33.7978644 58.48168945 42.13574219 C61.11210684 54.29173642 58.87482541 67.98192409 56.9375 80.0546875 C54.84673911 93.22070849 54.43187512 105.93778296 54.9375 119.2421875 C54.97883057 120.4178125 54.97883057 120.4178125 55.02099609 121.6171875 C55.20965831 126.50277553 55.53503173 131.36986609 55.9375 136.2421875 C56.00727051 137.08845703 56.07704102 137.93472656 56.14892578 138.80664062 C56.97580963 148.6309336 57.92379334 158.44207625 59 168.2421875 C59.07919678 168.965271 59.15839355 169.68835449 59.23999023 170.43334961 C59.68769398 174.39503452 60.27407574 178.31181688 60.9375 182.2421875 C61.4438325 186.24221421 61.61179866 189.27716414 59.20703125 192.71875 C43.59729133 207.00854868 10.45522565 204.45657245 -8.881073 203.66317749 C-24.85360033 202.87042445 -44.54152016 201.31336967 -57.0625 190.2421875 C-60.74557122 182.87604506 -57.73857177 170.88835616 -56.6875 162.9921875 C-52.44899354 130.69784443 -50.38122292 97.8384703 -56.1640625 65.64453125 C-58.4554333 52.71336695 -58.5870428 37.62500219 -51.4765625 26.1484375 C-47.58948031 20.908393 -43.35881054 18.62737582 -37.0625 17.2421875 C-36.98 16.5409375 -36.8975 15.8396875 -36.8125 15.1171875 C-35.18203071 8.86705521 -31.17751371 4.9530798 -26.0625 1.2421875 C-17.99178394 -3.43882782 -8.71718454 -2.67459071 0 0 Z M-29.0625 14.6171875 C-30.46707532 18.30419771 -30.26244629 21.3099104 -30.0625 25.2421875 C-31.25875 25.1596875 -32.455 25.0771875 -33.6875 24.9921875 C-38.23339124 25.02431394 -40.63445504 26.125783 -44.0625 29.2421875 C-52.5518301 42.23384602 -49.24496843 58.95102236 -46.81640625 73.35546875 C-45.05594069 84.2853005 -44.82481027 95.1961544 -44.8125 106.2421875 C-44.81082825 107.03866699 -44.80915649 107.83514648 -44.80743408 108.65576172 C-44.80591304 120.90444508 -45.35467334 133.0422962 -46.4375 145.2421875 C-46.50062378 145.95922852 -46.56374756 146.67626953 -46.62878418 147.41503906 C-47.35567803 155.4877052 -48.37645011 163.47536664 -49.66552734 171.47802734 C-50.12727327 174.69321023 -50.26571999 177.80855794 -50.1875 181.0546875 C-50.16945313 182.05113281 -50.15140625 183.04757813 -50.1328125 184.07421875 C-50.09800781 185.14736328 -50.09800781 185.14736328 -50.0625 186.2421875 C-20.56850147 201.25731402 18.04549957 198.93228019 48.6015625 189.07421875 C50.91892173 188.30196534 50.91892173 188.30196534 52.9375 187.2421875 C52.35794175 179.86354462 51.6644319 172.50448943 50.8840332 165.14453125 C49.59197641 152.85643868 48.52898422 140.57338875 47.75 128.2421875 C47.62443726 126.30520996 47.62443726 126.30520996 47.49633789 124.32910156 C46.77908358 112.39287809 46.56362467 100.58310235 47.8125 88.6796875 C47.90128418 87.77549072 47.99006836 86.87129395 48.08154297 85.93969727 C48.56974798 81.14473471 49.20638759 76.4249963 50.0625 71.6796875 C52.42823776 57.06553328 52.64746599 43.25078196 44 30.8046875 C41.62532906 27.8512651 39.50834858 25.70715102 35.9375 24.2421875 C33.22796449 23.99022621 33.22796449 23.99022621 30.9375 24.2421875 C31.02 23.2109375 31.1025 22.1796875 31.1875 21.1171875 C30.82098918 15.43626982 28.50640884 12.62432148 24.3125 8.9296875 C19.00133588 5.15596563 13.28567821 5.61203746 6.9375 6.2421875 C5.865 6.9846875 4.7925 7.7271875 3.6875 8.4921875 C2.78 9.0696875 1.8725 9.6471875 0.9375 10.2421875 C-1.38509457 9.50339002 -3.4050554 8.41231047 -5.5703125 7.296875 C-15.33170538 3.16587801 -22.71557993 7.08021992 -29.0625 14.6171875 Z " fill="#303030" transform="translate(111.0625,11.7578125)"/>
<path d="M0 0 C2.1484375 1.16796875 2.1484375 1.16796875 4.390625 2.8046875 C8.22450613 4.69990636 11.44725915 4.38564638 15.6484375 4.16796875 C24.83559942 3.69195 24.83559942 3.69195 29.1484375 7.16796875 C31.82820376 11.18761813 31.95370406 14.44429174 31.1484375 19.16796875 C28.11692709 23.35858608 25.17773331 25.14348257 20.1484375 26.16796875 C13.85878885 26.84148961 8.70239179 26.19385617 2.7109375 24.16796875 C-6.12608347 21.25018313 -13.34443914 20.71535666 -21.9140625 24.66796875 C-22.79191406 25.13203125 -23.66976562 25.59609375 -24.57421875 26.07421875 C-26.8515625 27.16796875 -26.8515625 27.16796875 -29.8515625 27.16796875 C-30.10083682 20.63144215 -29.81816016 14.17055588 -29.1640625 7.66796875 C-29.11072754 6.97380859 -29.05739258 6.27964844 -29.00244141 5.56445312 C-28.62535564 2.23039333 -28.23340673 0.5155449 -25.71875 -1.7734375 C-17.52729087 -4.79780456 -7.79932634 -3.57127048 0 0 Z " fill="#F8C693" transform="translate(93.8515625,144.83203125)"/>
<path d="M0 0 C5.22143149 2.66190625 9.3597777 6.71955539 12 12 C12.66466628 16.83307341 12.66579827 20.0208849 9.875 24.125 C7 26 7 26 3.9375 25.9375 C1 25 1 25 -0.9375 23.9375 C-4.02554298 22.5338441 -6.65419127 22.76101366 -10 23 C-10.66 23.350625 -11.32 23.70125 -12 24.0625 C-15.18427995 25.55513122 -17.67085738 24.80146026 -21 24 C-23.54942138 20.17586794 -23.59616601 18.54576584 -23 14 C-20.27229084 9.11019361 -16.62073714 5.16155699 -12 2 C-11.401875 1.5875 -10.80375 1.175 -10.1875 0.75 C-6.77390637 -0.42037496 -3.5299733 -0.54622411 0 0 Z " fill="#FEB0C7" transform="translate(117,72)"/>
<path d="M0 0 C5.68574428 0.69191597 10.78744851 2.09982096 16.15234375 4.08203125 C17.14234375 4.41203125 18.13234375 4.74203125 19.15234375 5.08203125 C19.17919787 7.39446917 19.19867216 9.70699395 19.21484375 12.01953125 C19.22644531 13.30730469 19.23804688 14.59507813 19.25 15.921875 C19.15234375 19.08203125 19.15234375 19.08203125 18.15234375 20.08203125 C11.80041654 20.63921785 7.41504889 19.76375913 2.15234375 16.08203125 C-1.70278328 12.76826248 -3.67620866 10.3893191 -4.34765625 5.26953125 C-3.54575686 0.15742261 -3.54575686 0.15742261 0 0 Z " fill="#F8C693" transform="translate(137.84765625,105.91796875)"/>
<path d="M0 0 C6.4928697 2.1642899 8.67648021 4.11563061 12.8125 9.25 C14.55704319 13.28999475 14.86464829 16.67675854 14 21 C12.43840655 24.3938631 10.68745568 27.3883294 8 30 C3.70380687 31.35190344 3.70380687 31.35190344 1 30 C0.67 20.1 0.34 10.2 0 0 Z " fill="#F5C493" transform="translate(66,94)"/>
<path d="M0 0 C2.71509341 0.55061335 5.32899112 1.25024312 8 2 C8.95261487 6.76307437 9.08333357 11.1666528 9 16 C7.10353002 15.88506243 5.20781668 15.75760358 3.3125 15.625 C2.25675781 15.55539063 1.20101562 15.48578125 0.11328125 15.4140625 C-3.86994993 14.88429775 -6.86792066 14.0188714 -9.875 11.3125 C-11.53249897 7.90541879 -10.93256267 5.59702746 -10 2 C-6.23833409 -0.50777727 -4.47445973 -0.2934072 0 0 Z " fill="#F7C694" transform="translate(151,149)"/>
<path d="M0 0 C2.4375 0.5625 2.4375 0.5625 4.25 2.0625 C5.91775467 5.57356247 6.10976341 8.79035529 5.4375 12.5625 C3.75 15.5625 3.75 15.5625 1.4375 17.5625 C-1.125 18.125 -1.125 18.125 -3.5625 17.5625 C-6.50080822 15.13079664 -6.57576848 13.44308372 -7 9.625 C-6.87206775 6.51392036 -6.47095541 5.39975406 -4.875 2.5625 C-2.5625 0.5625 -2.5625 0.5625 0 0 Z " fill="#FCB2C8" transform="translate(102.5625,36.4375)"/>
<path d="M0 0 C2.59094622 0.35012787 4.5774211 0.73770965 6.8125 2.125 C8.7135186 5.12660832 8.35858987 7.53363125 8 11 C6.5 13.9375 6.5 13.9375 5 16 C1.625 15.6875 1.625 15.6875 -2 15 C-4.4915904 11.2626144 -4.45793285 9.42668417 -4 5 C-2 2.0625 -2 2.0625 0 0 Z " fill="#FCB4C9" transform="translate(139,52)"/>
<path d="M0 0 C2.99388704 1.22826135 3.96041825 2.12357765 5.4375 5 C6.00854749 8.83417603 5.72319575 10.51325909 3.75 13.875 C1.4375 16 1.4375 16 -1.125 16.5625 C-3.5625 16 -3.5625 16 -5.375 14.5 C-7.05844152 10.95591258 -7.27177305 7.85371688 -6.5625 4 C-4.55229874 0.94747215 -3.69121128 0 0 0 Z " fill="#FDB2C7" transform="translate(84.5625,53)"/>
<path d="M0 0 C2.3125 0.8125 2.3125 0.8125 3.3125 1.8125 C3.43774459 3.60087622 3.48823676 5.39478214 3.5 7.1875 C3.51417969 8.16460937 3.52835938 9.14171875 3.54296875 10.1484375 C3.3125 12.8125 3.3125 12.8125 1.3125 15.8125 C-1.0306213 15.55688677 -3.36593403 15.21979228 -5.6875 14.8125 C-7.41599282 11.35551435 -7.17004755 7.59245583 -6.6875 3.8125 C-4.6259193 0.60559668 -3.84480717 -0.26824236 0 0 Z " fill="#FDB1C7" transform="translate(124.6875,37.1875)"/>
<path d="M0 0 C1.9375 0.8125 1.9375 0.8125 4 2 C4.33 2.99 4.66 3.98 5 5 C9.87935369 7.43967685 14.82524636 7.57020196 20 6 C22.40406384 3.62157423 22.40406384 3.62157423 24 1 C24.99 0.67 25.98 0.34 27 0 C27.8125 1.625 27.8125 1.625 28 4 C25.59898271 7.63790499 24.05129976 9.49720446 20.125 11.375 C13.28191134 12.74361773 9.45965445 12.15533385 3.69921875 8.38671875 C2 7 2 7 0 4 C0 2.68 0 1.36 0 0 Z " fill="#9C9C9C" transform="translate(100,121)"/>
</svg>
